<?xml version="1.0" encoding="UTF-8" standalone="no"?>
<svg
   width="590.55127"
   height="590.55353"
   viewBox="0 0 590.55127 590.55353"
   version="1.1"
   xml:space="preserve"
   style="clip-rule:evenodd;fill-rule:evenodd;stroke-linejoin:round;stroke-miterlimit:2"
   id="svg6"
   sodipodi:docname="favicon.svg"
   xmlns:inkscape="http://www.inkscape.org/namespaces/inkscape"
   xmlns:sodipodi="http://sodipodi.sourceforge.net/DTD/sodipodi-0.dtd"
   xmlns="http://www.w3.org/2000/svg"
   xmlns:svg="http://www.w3.org/2000/svg"
   xmlns:serif="http://www.serif.com/"><defs
   id="defs6" /><sodipodi:namedview
   id="namedview6"
   pagecolor="#ffffff"
   bordercolor="#000000"
   borderopacity="0.25"
   inkscape:showpageshadow="2"
   inkscape:pageopacity="0.0"
   inkscape:pagecheckerboard="0"
   inkscape:deskcolor="#d1d1d1"><inkscape:page
     x="0"
     y="0"
     width="590.55127"
     height="590.55353"
     id="page2"
     margin="0"
     bleed="0" /></sodipodi:namedview>
    <g
   id="Coloured-Logo-PyEPR-"
   serif:id="Coloured Logo PyEPR "
   transform="translate(-20.25475,659.4425)">
        <g
   id="g6">
            <rect
   x="0.995"
   y="-672.854"
   width="641.14502"
   height="620.19598"
   style="fill:none"
   id="rect1" />
            <g
   id="Coloured-Logo-PyEPR-1"
   serif:id="Coloured Logo PyEPR "
   transform="translate(-334.07625,-1911.4125)"
   inkscape:export-filename="Coloured-Logo-PyEPR-1.svg"
   inkscape:export-xdpi="96"
   inkscape:export-ydpi="96">
                <g
   transform="matrix(1.12302,0,0,1.1658,354.331,1251.97)"
   id="g1">
                    <path
   d="M 525.86,81.469 C 525.86,36.505 487.965,0 441.288,0 H 84.572 C 37.896,0 0,36.505 0,81.469 v 343.627 c 0,44.964 37.896,81.469 84.572,81.469 h 356.716 c 46.677,0 84.572,-36.505 84.572,-81.469 z"
   style="fill:#db7c17"
   id="path1" />
                </g>
                <g
   id="path1892-8-4-0-02-8-8"
   transform="matrix(1.81568,0,0,1.81568,-7948.22,4636.06)">
                    <path
   d="m 4698.21,-1602.33 c -13.78,-0.85 -27.04,-4.35 -39.13,-10.33 -44.31,-21.9 -66.23,-72.32 -52.09,-119.75 8.62,-28.93 30.35,-52.95 58.21,-64.36 l 2.84,-1.16 0.12,-3.92 c 0.38,-11.85 2.87,-24.63 7.08,-36.25 1.09,-3.01 1.57,-3.86 2.69,-4.85 1.31,-1.15 2.54,-1.55 4.83,-1.57 4,-0.04 22.44,0.48 23.29,0.64 1.66,0.32 2.88,1.01 4.04,2.3 1.05,1.18 1.07,1.23 1.51,3.24 0.51,2.33 0.51,2.21 -0.42,7.98 -0.57,3.46 -1.78,9.34 -2,9.7 -0.04,0.07 -0.53,2.96 -1.09,6.42 -0.72,4.5 -1.01,6.79 -1.01,8.07 v 1.78 h 1.37 l 1.41,-2.87 c 3.08,-6.3 7.55,-12.92 12.24,-18.16 1.15,-1.28 1.69,-1.73 2.68,-2.21 l 1.23,-0.61 3.29,0.05 c 2.6,0.04 4.12,0.14 7.22,0.58 2.17,0.31 5.75,0.73 7.96,0.94 5.44,0.52 6.62,0.77 8.12,1.74 2.18,1.41 3.29,3.4 3.44,6.23 0.07,1.3 0,1.97 -0.29,3.16 -0.61,2.44 -1.71,4.92 -3.17,7.16 -1.59,2.44 -3.34,5.56 -4.39,7.83 -0.95,2.06 -2.21,5.17 -2.12,5.26 0.04,0.04 1.5,0.79 3.26,1.69 9.66,4.92 17.57,10.57 25.11,17.96 11.1,10.85 19.13,23.27 24.44,37.78 1,2.74 2.73,8.43 3.28,10.79 l 0.22,0.94 1.4,0.51 c 3.7,1.34 5.82,2.39 8.1,4.01 5.09,3.63 7.07,5.69 8.81,9.15 1.23,2.45 1.65,4.2 2.78,11.52 0.99,6.4 1.84,11.2 2.77,15.54 0.82,3.83 0.87,5.47 0.22,7.23 -1.44,3.89 -5.18,6.84 -12.01,9.43 -3.73,1.42 -9.8,2.97 -15.02,3.84 -1.06,0.17 -1.99,0.37 -2.07,0.44 -0.08,0.07 -0.67,1.29 -1.31,2.71 -7.84,17.44 -20.64,32.46 -36.58,42.93 -14.02,9.2 -29.79,14.71 -46.54,16.26 -3.74,0.34 -11.31,0.48 -14.72,0.27 z m 12.65,-11.2 c -0.06,-0.52 -0.17,-3.51 -0.23,-6.62 -0.31,-14.43 1.49,-28.1 4.8,-36.55 2.29,-5.85 5.46,-10.4 8.14,-11.71 2.26,-1.1 13.84,-2.57 31.79,-4.04 18.44,-1.51 21.6,-1.79 27.61,-2.39 3.48,-0.35 6.6,-0.72 6.95,-0.82 0.35,-0.1 1.05,-0.23 1.55,-0.28 2.2,-0.22 3.85,-0.52 6.68,-1.19 4.47,-1.07 10.48,-2.75 10.75,-3 0.35,-0.32 -0.44,-0.59 -2.16,-0.74 -0.75,-0.06 -3.35,-0.48 -5.76,-0.92 -2.42,-0.44 -5.18,-0.93 -6.13,-1.08 -0.95,-0.15 -2.97,-0.48 -4.48,-0.72 -3.64,-0.59 -13.77,-1.78 -21.94,-2.58 -10.15,-0.98 -16.99,-1.74 -27.34,-3.02 -13.72,-1.7 -15.53,-1.88 -19.38,-1.9 -4.25,-0.04 -4.73,0.09 -6.99,1.59 -1.64,1.09 -4.65,4.16 -5.84,5.98 -2.02,3.05 -4.6,8.43 -6.38,13.26 -2.84,7.74 -6.61,21.74 -9.04,33.55 -1.49,7.25 -3.2,18.8 -3.2,21.59 v 1.39 l 4.52,0.49 c 4.94,0.55 5.59,0.58 11.91,0.64 l 4.28,0.04 -0.11,-0.96 z m -27.92,-7.64 c 1.9,-14.26 3.39,-22.56 5.79,-32.08 3.85,-15.28 8.75,-27.86 14.42,-37.02 3.61,-5.83 8.89,-8.52 17.83,-9.06 3.28,-0.2 6.69,0.13 20.57,2.01 7.72,1.04 14.89,1.92 22.49,2.74 8.12,0.88 28.66,3.3 31.73,3.75 6,0.86 14.52,1.84 15.58,1.79 1.02,-0.05 1.15,-0.1 1.13,-0.42 -0.05,-0.69 -1.19,-8.78 -1.55,-10.97 -1.13,-6.86 -2.63,-9.48 -6.51,-11.38 -0.99,-0.48 -3.65,-1.49 -5.91,-2.24 -2.26,-0.74 -4.61,-1.54 -5.21,-1.76 -2.2,-0.82 -5.67,-1.79 -16.08,-4.48 -18.51,-4.79 -22.41,-5.98 -29.45,-8.98 -5.1,-2.17 -16.85,-8.32 -18.36,-9.6 l -0.63,-0.52 -0.17,-4.11 c -0.23,-5.11 0.11,-24.23 0.5,-28.21 0.5,-5.18 1.9,-14 2.39,-15.03 0.15,-0.31 0.47,-1.42 0.73,-2.47 1.53,-6.3 3.61,-11.85 7.83,-20.9 1.07,-2.3 1.95,-4.28 1.95,-4.41 0,-0.27 -0.01,-0.27 -4.48,-0.94 -6.17,-0.92 -7.05,-1.01 -7.61,-0.72 -1.2,0.63 -6.51,8.58 -8.9,13.35 -1.56,3.11 -4.58,10.91 -5.24,13.53 -1.08,4.3 -2.02,9.72 -2.31,13.35 -0.29,3.46 -0.12,12.43 0.27,15.08 0.37,2.58 0.36,3.53 -0.06,4.36 -0.46,0.9 -0.68,1.07 -1.72,1.3 -1.14,0.26 -1.73,0 -3.2,-1.36 -2.63,-2.43 -4.27,-5.29 -7.45,-12.98 -2.36,-5.72 -4.02,-10.21 -4.56,-12.35 -0.44,-1.71 -1.76,-8.87 -1.81,-9.78 -0.05,-0.54 0.23,-9.49 0.45,-15.09 0.29,-7.79 0.62,-10.65 2.19,-18.96 0.5,-2.63 0.91,-4.99 0.91,-5.24 0,-0.4 -0.1,-0.46 -0.87,-0.56 -1.35,-0.18 -7.06,-0.47 -9.14,-0.47 -2.2,0 -2.08,-0.1 -2.96,2.42 -2.37,6.78 -3.79,13.23 -4.7,21.35 -0.37,3.31 -0.53,12.34 -0.28,15.91 0.2,2.89 1.15,9.41 1.97,13.53 1.99,10.03 5.78,20.93 10.48,30.17 4.46,8.76 4.13,8.01 4.12,9.35 0,1.6 -0.7,2.97 -3.48,6.84 -1.17,1.61 -2.62,3.66 -3.23,4.57 -3.01,4.46 -6.33,7.35 -9.56,8.37 -1.06,0.34 -1.7,0.4 -3.75,0.4 -2.35,0 -2.56,-0.04 -4.41,-0.67 -3.25,-1.12 -5.73,-2.44 -11.46,-6.14 -1.63,-1.05 -3.02,-1.88 -3.06,-1.83 -0.05,0.05 0.17,0.9 0.5,1.9 0.7,2.17 2.75,6.26 6.54,13.05 4,7.16 4.78,8.99 5.12,12.06 0.5,4.38 -1,8.94 -4.73,14.46 -2.89,4.26 -3.26,4.85 -4.68,7.32 -5.88,10.23 -13.16,26.53 -17.22,38.55 l -0.88,2.62 1.15,1.09 c 1.65,1.56 5.27,4.55 7.62,6.3 8.08,6 16.45,10.27 26.7,13.61 3.86,1.25 3.82,1.24 3.88,1.2 0.05,-0.04 0.37,-2.54 0.78,-5.6 z m 44.47,2.31 c 10.79,-3.07 20.5,-7.87 29.21,-14.44 7.78,-5.86 14.73,-13.21 20.07,-21.23 2.26,-3.38 4.78,-7.7 4.6,-7.86 -0.05,-0.05 -1.19,0.06 -2.58,0.2 -1.39,0.13 -7.19,0.58 -12.9,0.99 -20.8,1.48 -27.37,2.32 -36.07,4.6 l -2.13,0.56 -0.29,0.93 c -0.94,3 -2.1,8.26 -2.68,12.19 -0.81,5.49 -0.99,8.21 -0.99,15.63 0,7.76 0.08,9.24 0.6,9.24 0.17,0 1.6,-0.36 3.16,-0.81 z m -89.1,-41.89 c 3.78,-9.06 8.44,-18.25 11.05,-21.76 5.05,-6.83 7.44,-11.4 8,-15.32 0.41,-2.84 0.32,-3.12 -2.83,-8.64 -4.87,-8.52 -8.38,-16.53 -9.36,-21.3 -0.38,-1.86 -0.42,-4.83 -0.09,-6.22 1.12,-4.75 5.44,-7.64 10.43,-6.98 2.81,0.38 5.94,1.59 12.35,4.79 7.35,3.66 8.21,3.91 10.26,2.91 1.04,-0.5 3.57,-2.89 4.9,-4.63 l 1.03,-1.34 -2.6,-4.73 c -3.85,-7.03 -5.76,-11.21 -7.47,-16.35 -0.73,-2.2 -1.84,-6.54 -2.11,-8.22 -0.07,-0.44 -0.48,-2.41 -0.92,-4.37 -0.44,-1.96 -1.06,-5.19 -1.38,-7.19 -0.56,-3.47 -0.61,-3.63 -0.97,-3.52 -0.79,0.25 -7.24,3.55 -9.25,4.74 -22.39,13.29 -37.55,35.29 -41.96,60.89 -0.93,5.39 -1.09,7.61 -1.09,14.63 0,7.02 0.16,9.15 1.09,14.67 2.23,13.21 7.31,25.37 15.23,36.51 l 1.54,2.17 1.5,-4 c 0.83,-2.2 2.02,-5.23 2.65,-6.74 z m 148.68,-70.32 c 0,-0.34 -1.65,-4.76 -2.59,-6.92 -4.35,-10.02 -10.19,-18.71 -17.8,-26.51 -5.3,-5.43 -10.7,-9.76 -16.91,-13.57 -2.5,-1.53 -7.29,-4.11 -7.4,-3.99 -0.25,0.28 -1.34,8.21 -1.78,13.05 -0.27,2.85 -0.33,20.05 -0.09,21.52 l 0.14,0.86 2.01,1.2 c 5.17,3.11 11.32,5.75 18.47,7.94 4.24,1.3 7.39,2.13 16.26,4.3 4.27,1.05 8.06,1.99 8.41,2.09 0.86,0.25 1.28,0.26 1.28,0.05 z"
   style="fill:#ffffff;fill-rule:nonzero"
   id="path2" />
                </g>
                <g
   transform="matrix(1.4158,0,0,1.4158,723.912,1802.09)"
   id="g5">
                    <g
   transform="scale(141.111)"
   id="g3">
                        <path
   d="m 0.472,-0.09 c 0,0.01 0,0.024 -0.001,0.044 -0.001,0.02 -0.002,0.034 -0.002,0.044 0,0.007 -0.005,0.011 -0.016,0.011 C 0.457,0.009 0.441,0.007 0.407,0.005 0.373,0.002 0.322,0.001 0.254,0.001 c -0.023,0 -0.058,0 -0.105,0.001 C 0.102,0.003 0.067,0.004 0.044,0.004 0.036,0.004 0.032,0.001 0.03,-0.006 l -0.013,-0.07 c 0,-0.004 0.011,-0.008 0.034,-0.012 0.026,-0.004 0.042,-0.009 0.048,-0.015 0.045,-0.039 0.09,-0.086 0.133,-0.14 0.057,-0.07 0.085,-0.123 0.085,-0.159 0,-0.029 -0.012,-0.054 -0.036,-0.073 -0.023,-0.018 -0.049,-0.027 -0.079,-0.027 -0.029,0 -0.058,0.006 -0.087,0.017 -0.02,0.008 -0.039,0.018 -0.059,0.031 -0.017,0.012 -0.026,0.017 -0.026,0.017 -0.002,0 -0.004,0 -0.005,0 -0.003,-0.002 -0.005,-0.007 -0.006,-0.017 0,-0.008 -0.001,-0.019 -0.003,-0.034 -0.007,-0.029 -0.01,-0.041 -0.01,-0.036 0,-0.003 0.002,-0.006 0.007,-0.009 0.026,-0.02 0.06,-0.036 0.101,-0.049 C 0.153,-0.594 0.19,-0.6 0.225,-0.6 c 0.06,0 0.109,0.014 0.148,0.042 0.044,0.031 0.066,0.076 0.066,0.134 0,0.063 -0.057,0.152 -0.172,0.266 -0.013,0.015 -0.033,0.036 -0.06,0.064 0.008,0 0.019,0.001 0.032,0.001 0.064,0 0.137,-0.004 0.219,-0.012 h 0.004 c 0.007,0 0.01,0.005 0.01,0.015 z"
   style="fill:#ffffff;fill-rule:nonzero"
   id="path3" />
                    </g>
                    <g
   transform="matrix(141.111,0,0,141.111,68.4196,0)"
   id="g4">
                        <path
   d="m 0.487,-0.213 c 0,0.069 -0.02,0.124 -0.06,0.165 -0.04,0.041 -0.095,0.061 -0.164,0.061 -0.075,0 -0.133,-0.026 -0.174,-0.079 -0.037,-0.048 -0.056,-0.11 -0.056,-0.187 0,-0.094 0.034,-0.176 0.1,-0.245 0.067,-0.069 0.147,-0.103 0.241,-0.103 0.006,0 0.011,0.003 0.013,0.01 0.017,0.046 0.025,0.069 0.025,0.07 0,0.009 -0.006,0.014 -0.018,0.014 -0.046,0 -0.086,0.009 -0.122,0.028 -0.046,0.024 -0.078,0.056 -0.096,0.095 -0.002,0.005 -0.004,0.009 -0.004,0.012 0,0.004 0.002,0.006 0.005,0.006 0.02,-0.008 0.039,-0.015 0.058,-0.023 0.021,-0.007 0.042,-0.01 0.062,-0.01 0.056,0 0.101,0.017 0.137,0.051 0.035,0.035 0.053,0.079 0.053,0.135 z m -0.105,0.002 c 0,-0.033 -0.011,-0.06 -0.031,-0.081 C 0.33,-0.314 0.303,-0.324 0.27,-0.324 c -0.083,0 -0.124,0.033 -0.124,0.1 0,0.038 0.01,0.071 0.029,0.099 0.022,0.033 0.051,0.049 0.087,0.049 0.08,0 0.12,-0.045 0.12,-0.135 z"
   style="fill:#ffffff;fill-rule:nonzero"
   id="path4" />
                    </g>
                </g>
            </g>
        </g>
    </g>
</svg>
